<svg width="343" height="192" viewBox="0 0 343 192" fill="none" xmlns="http://www.w3.org/2000/svg">
<g clip-path="url(#clip0_1493_1899)">
<path fill-rule="evenodd" clip-rule="evenodd" d="M108.813 335.104C93.743 309.083 69.767 289.628 62.0005 260.583C53.5643 229.034 49.8091 194.744 63.3385 165.041C77.1624 134.693 104.672 112.115 135.463 99.3042C164.8 87.0985 196.669 95.2291 228.435 96.3517C265.827 97.6731 309.928 81.0987 337.474 106.443C364.965 131.737 354.218 176.809 356.399 214.087C358.336 247.205 360.118 279.517 349.436 310.913C337.254 346.714 321.03 381.649 291.394 405.131C257.225 432.206 213.129 466.817 172.393 451.193C130.169 434.998 131.48 374.241 108.813 335.104Z" fill="#3DB0F2"/>
<path fill-rule="evenodd" clip-rule="evenodd" d="M184.45 94.0325C214.417 96.5305 244.082 87.9679 272.357 98.1876C303.069 109.288 333.358 125.798 350.006 153.871C367.016 182.556 369.828 218.033 362.751 250.623C356.008 281.673 331.127 303.184 312.057 328.614C289.61 358.547 278.017 404.212 241.478 412.34C205.013 420.451 174.161 385.879 142.32 366.371C114.033 349.041 86.4949 332.042 66.831 305.338C44.4075 274.886 25.0045 241.611 22.6639 203.873C19.9652 160.361 16.7524 104.396 52.8484 79.8894C90.2632 54.4876 139.379 90.2754 184.45 94.0325Z" stroke="#3DB0F2"/>
<path fill-rule="evenodd" clip-rule="evenodd" d="M254.55 78.0325C224.583 80.5305 194.918 71.9679 166.643 82.1876C135.931 93.2884 105.642 109.798 88.9945 137.871C71.9844 166.556 69.1715 202.033 76.249 234.623C82.9921 265.673 107.873 287.184 126.943 312.614C149.39 342.547 160.983 388.212 197.522 396.34C233.987 404.451 264.839 369.879 296.68 350.371C324.967 333.041 352.505 316.042 372.169 289.338C394.592 258.886 413.995 225.611 416.336 187.873C419.035 144.361 422.248 88.3958 386.152 63.8894C348.737 38.4876 299.621 74.2754 254.55 78.0325Z" stroke="#3DB0F2"/>
<path d="M280.894 44.4604H268.825V56.5337H280.894V44.4604Z" fill="#FFF4DE"/>
<path d="M275.509 42.9731H274.212V46.0049H275.509V42.9731Z" fill="#F98038"/>
<path d="M261.326 44.4604V68.9845C261.326 70.08 260.891 71.1305 260.116 71.9051C259.342 72.6797 258.292 73.1149 257.197 73.1149H235.976C237.034 73.0631 238.031 72.6062 238.761 71.8388C239.492 71.0714 239.899 70.0524 239.898 68.993V44.4604H261.326Z" fill="#D6EAF2"/>
<path d="M250.605 42.9731H249.308V46.0049H250.605V42.9731Z" fill="#F98038"/>
<path d="M244.01 50.3882H256.7" stroke="#639AD6" stroke-width="3" stroke-miterlimit="10"/>
<path d="M244.01 53.5361H256.7" stroke="#639AD6" stroke-width="3" stroke-miterlimit="10"/>
<path d="M244.01 56.6816H256.7" stroke="#639AD6" stroke-width="3" stroke-miterlimit="10"/>
<path d="M244.01 59.8296H256.7" stroke="#639AD6" stroke-width="3" stroke-miterlimit="10"/>
<path d="M244.01 62.978H256.7" stroke="#639AD6" stroke-width="3" stroke-miterlimit="10"/>
<path d="M255.259 164.711L245.611 193.396C244.631 196.309 242.762 198.839 240.267 200.631C237.772 202.423 234.777 203.386 231.706 203.383H177.074C174.002 203.386 171.008 202.423 168.513 200.631C166.018 198.839 164.149 196.308 163.169 193.396L155.223 169.801C154.902 168.846 154.813 167.829 154.963 166.833C155.112 165.837 155.497 164.891 156.084 164.073C156.672 163.255 157.446 162.588 158.341 162.129C159.237 161.669 160.23 161.429 161.236 161.429H167.352C168.75 161.435 170.103 160.934 171.16 160.018C172.217 159.103 172.907 157.835 173.101 156.45L176.665 131.142C177.076 128.219 178.529 125.542 180.757 123.605C182.985 121.669 185.837 120.602 188.788 120.602H237.977C239.728 120.602 241.459 120.978 243.053 121.705C244.647 122.431 246.066 123.491 247.215 124.813C248.365 126.135 249.217 127.688 249.715 129.367C250.213 131.047 250.345 132.814 250.103 134.549L247.044 156.385C246.956 157.012 247.003 157.65 247.183 158.257C247.362 158.865 247.67 159.426 248.085 159.904C248.5 160.382 249.012 160.766 249.588 161.029C250.164 161.292 250.789 161.428 251.422 161.429H252.898C253.293 161.428 253.683 161.522 254.034 161.701C254.386 161.881 254.69 162.142 254.921 162.463C255.152 162.784 255.303 163.155 255.362 163.546C255.42 163.937 255.385 164.336 255.259 164.711Z" fill="#D6EAF2"/>
<path d="M251.138 161.123H247.097C244.455 161.1 241.873 161.911 239.718 163.44C237.563 164.968 235.944 167.137 235.091 169.639L228.17 188.874C227.283 191.508 225.592 193.798 223.336 195.42C221.08 197.042 218.371 197.915 215.593 197.916H165.24" stroke="white" stroke-width="3" stroke-miterlimit="10"/>
<path d="M208.226 56.1846C220.658 56.4684 215.582 69.5438 222.636 71.8347C227.631 73.4556 233.913 75.843 233.78 85.8667C233.669 94.136 232.951 95.2885 239.26 98.82C247.903 103.646 245.571 119.912 228.144 119.333" stroke="#41465A" stroke-width="3" stroke-miterlimit="10"/>
<path d="M189.276 65.5951C189.579 64.7661 192.113 53.8085 208.621 55.7389C220.97 57.1838 215.999 71.159 221.844 73.132C226.277 74.6252 233.09 76.8933 232.361 86.8915C231.759 95.1381 230.973 96.2594 237.06 100.146C245.403 105.494 242.106 121.578 224.744 119.96C207.383 118.342 181.398 118.964 180.223 115.597C179.372 113.127 172.031 98.5106 182.709 92.1801C185.922 90.2753 191.852 87.9617 191.222 84.2599C189.945 76.7656 186.092 74.276 189.276 65.5951Z" fill="#252954"/>
<path d="M210.02 80.9897C210.02 80.9897 209.103 92.8501 213.851 96.4866L200.928 96.2538C200.928 96.2538 201.231 83.1188 200.928 80.9954L210.02 80.9897Z" fill="#FFB3A4"/>
<path d="M203.831 90.6444C208.728 90.6444 212.699 87.7428 212.699 84.1635C212.699 80.5842 208.728 77.6826 203.831 77.6826C198.933 77.6826 194.963 80.5842 194.963 84.1635C194.963 87.7428 198.933 90.6444 203.831 90.6444Z" fill="#242854"/>
<path d="M213.262 76.6493C213.262 76.6493 210.674 87.9532 201.361 87.5558C195.169 87.2918 191.968 76.6038 191.517 71.4855C191.139 67.2132 196.707 63.9287 200.784 64.7946C205.807 65.8619 206.08 74.1994 211.358 73.714L213.262 76.6493Z" fill="#FFB3A4"/>
<path d="M198.181 72.214C196.035 72.7613 193.945 73.5063 191.938 74.4396C191.624 73.383 191.408 72.2997 191.293 71.2034C191.01 68.0808 193.907 65.4947 197.074 64.6572C197.406 64.7651 197.749 64.8843 198.11 65.0177C199.747 65.6224 197.136 68.7564 198.181 72.214Z" fill="#EA786C"/>
<path d="M200.139 64.5787C201.861 65.2146 198.056 68.553 198.887 72.2434C195.236 73.0318 191.63 74.0145 188.084 75.1872C188.084 75.1872 184.824 70.1768 187.4 66.7617C189.977 63.3467 194.602 62.5348 200.139 64.5787Z" fill="#252954"/>
<path d="M211.425 77.1969C213.153 77.1969 214.555 75.795 214.555 74.0657C214.555 72.3364 213.153 70.9346 211.425 70.9346C209.696 70.9346 208.295 72.3364 208.295 74.0657C208.295 75.795 209.696 77.1969 211.425 77.1969Z" fill="#FFB3A4"/>
<path d="M185.141 102.354C189.37 100.22 193.984 103.112 191.696 109.837C190.039 114.706 175.252 143.465 173.575 145.963C163.39 151.664 123.441 145.194 123.441 145.194C123.441 145.194 117.884 147.564 116.273 147.584C115.566 147.584 111.267 146.778 111.267 146.778C111.267 146.778 111.128 146.281 111.789 145.662C112.45 145.044 117.073 145.742 115.433 144.243C114.703 143.582 110.892 144.853 109.19 146.364C107.487 147.874 106.763 146.594 106.763 146.594C106.763 146.594 108.446 143.738 109.034 143.232C109.621 142.727 113.441 140.632 115.98 140.394C117.822 140.221 122.223 140.737 124.516 141.393C133.438 139.661 151.656 137.268 163.484 137.969C163.467 137.984 175.748 107.098 185.141 102.354Z" fill="#FFB3A4"/>
<path d="M213.229 92.3052C213.229 92.3052 215.954 97.2759 230.908 102.411C230.908 102.411 230.854 108.844 228.428 117.303C224.589 130.691 219.631 149.41 219.705 156.782C219.705 156.782 203.578 161.429 186.944 156.782C186.944 156.782 187.068 134.447 185.652 133.436C184.236 132.425 180.579 123.058 181.79 118.41C183.002 113.763 187.826 101.628 187.826 101.628C187.826 101.628 197.698 98.6725 198.544 92.8105C203.441 93.2624 208.375 93.0926 213.229 92.3052Z" fill="#FFF4DE"/>
<path d="M187.062 154.06L182.846 158.295C181.296 158.707 139.284 172.029 133.605 179.773C127.927 187.517 109.451 243.793 109.451 243.793C109.451 243.793 117.294 249.303 136.293 247.228C136.293 247.228 147.127 224.592 148.677 193.507C148.677 193.507 196.677 196.814 203.697 185.246C210.718 173.678 204.739 156.228 204.739 156.228C204.739 156.228 192.38 155.681 187.062 154.06Z" fill="#A1CBE2"/>
<path d="M219.73 154.06C219.73 154.06 233.323 178.121 223.311 190.095C212.503 203.025 167.468 198.165 167.468 198.165C167.468 198.165 182.02 213.958 184.188 247.932C184.188 247.932 169.31 250.722 160.232 248.346C160.232 248.346 147.161 204.629 146.094 192.383C144.755 176.985 194.406 166.655 194.406 166.655L196.413 155.584C196.413 155.584 206.64 157.04 219.73 154.06Z" fill="#A1CBE2"/>
<path d="M242.285 148.839C234.541 153.753 196.881 138.457 196.881 138.457C196.881 138.457 194.611 141.725 192.105 141.725C189.6 141.725 187.281 140.748 185.976 141.759C184.671 142.77 183.308 144.41 182.31 144.555C181.112 144.751 179.885 144.639 178.743 144.229C178.743 144.229 179.594 142.713 180.488 141.254C179.69 141.79 178.606 142.985 178.002 143.454C177.766 143.652 177.47 143.767 177.162 143.779C176.853 143.79 176.55 143.699 176.299 143.519C176.299 143.519 178.047 141.098 178.723 140.456C179.398 139.814 181.316 138.983 182.531 138.537C183.865 138.02 191.58 135.006 195.389 134.563C199.43 134.091 232.339 137.325 232.339 137.325C232.339 137.325 224.844 118.646 224.359 113.806C223.644 106.666 226.677 102.331 230.318 102.326C236.8 102.3 248.707 144.765 242.285 148.839Z" fill="#FFB3A4"/>
<path d="M179.957 144.53C179.929 144.53 179.901 144.523 179.878 144.507C179.861 144.497 179.847 144.483 179.836 144.467C179.824 144.451 179.817 144.433 179.812 144.414C179.808 144.395 179.808 144.376 179.811 144.356C179.815 144.337 179.822 144.319 179.832 144.303C180.093 143.894 182.406 140.286 183.223 139.88C184.642 139.181 186.489 138.259 186.489 138.259L186.623 138.526L183.357 140.147C182.727 140.459 180.78 143.369 180.082 144.462C180.069 144.483 180.05 144.5 180.028 144.512C180.006 144.524 179.982 144.53 179.957 144.53Z" fill="#DB7800"/>
<path d="M181.58 144.529C181.553 144.529 181.527 144.522 181.504 144.508C181.482 144.494 181.463 144.475 181.45 144.451C181.438 144.427 181.432 144.401 181.433 144.374C181.435 144.348 181.443 144.322 181.458 144.3C181.549 144.163 183.714 141.001 184.543 140.592C185.962 139.891 187.809 138.971 187.809 138.971L187.942 139.235C187.942 139.235 186.092 140.158 184.676 140.856C184.043 141.168 182.315 143.567 181.702 144.467C181.688 144.486 181.67 144.502 181.649 144.513C181.628 144.524 181.604 144.53 181.58 144.529Z" fill="#DB7800"/>
<path d="M312.484 150.111H25.3379V156.268H312.484V150.111Z" fill="#FFF4DE"/>
<path d="M299.556 156.473H273.696V162.196H299.556V156.473Z" fill="#FFF4DE"/>
<path d="M309.564 281.077C308.95 281.077 308.355 280.862 307.882 280.469C307.41 280.076 307.091 279.53 306.979 278.925L287.22 171.381C287.194 171.242 287.121 171.117 287.012 171.026C286.904 170.936 286.767 170.886 286.625 170.886C286.484 170.886 286.347 170.936 286.239 171.026C286.13 171.117 286.057 171.242 286.031 171.381L266.269 278.925C266.158 279.53 265.839 280.076 265.366 280.47C264.894 280.863 264.298 281.078 263.684 281.077C263.299 281.077 262.918 280.992 262.569 280.829C262.22 280.666 261.912 280.427 261.665 280.131C261.418 279.835 261.24 279.489 261.142 279.116C261.044 278.743 261.029 278.353 261.099 277.974L282.41 161.994H290.838L312.149 277.974C312.219 278.353 312.205 278.743 312.107 279.116C312.01 279.489 311.831 279.836 311.584 280.132C311.338 280.428 311.029 280.667 310.68 280.83C310.33 280.993 309.95 281.078 309.564 281.077Z" fill="#FFF4DE"/>
<path d="M64.1263 156.473H38.2661V162.196H64.1263V156.473Z" fill="#FFF4DE"/>
<path d="M74.1385 281.077C73.5241 281.077 72.9291 280.862 72.4568 280.469C71.9845 280.076 71.6648 279.53 71.5534 278.925L51.7915 171.384C51.7659 171.245 51.6925 171.119 51.5839 171.029C51.4752 170.938 51.3383 170.889 51.197 170.889C51.0556 170.889 50.9187 170.938 50.8101 171.029C50.7014 171.119 50.628 171.245 50.6025 171.384L30.8434 278.925C30.7319 279.53 30.4123 280.076 29.94 280.469C29.4677 280.862 28.8726 281.077 28.2582 281.077C27.8728 281.078 27.492 280.993 27.1428 280.83C26.7936 280.667 26.4847 280.428 26.2379 280.132C25.9912 279.836 25.8126 279.489 25.715 279.116C25.6174 278.743 25.603 278.353 25.6731 277.974L46.9815 161.994H55.4124L76.7237 277.974C76.7932 278.353 76.7785 278.743 76.6806 279.116C76.5828 279.489 76.4042 279.835 76.1576 280.131C75.9109 280.427 75.6022 280.666 75.2533 280.829C74.9044 280.992 74.5238 281.077 74.1385 281.077Z" fill="#FFF4DE"/>
<path d="M105.197 98.5986C106.707 98.5986 107.751 97.1281 107.751 95.581V86.9171C107.752 86.5175 107.673 86.1217 107.521 85.7523C107.368 85.3829 107.145 85.0473 106.862 84.7644C106.58 84.4816 106.245 84.2571 105.876 84.1038C105.507 83.9505 105.112 83.8715 104.712 83.8711H84.9927C84.593 83.8711 84.1972 83.9499 83.8279 84.103C83.4587 84.2561 83.1232 84.4805 82.8407 84.7634C82.5582 85.0463 82.3341 85.3821 82.1814 85.7517C82.0287 86.1212 81.9503 86.5172 81.9507 86.9171V95.581C81.9507 96.3881 82.2712 97.1621 82.8417 97.7328C83.4122 98.3035 84.1859 98.6242 84.9927 98.6242H96.5508C99.3885 98.6242 100.904 103.166 100.904 103.166C100.904 103.166 101.874 98.5986 105.197 98.5986Z" fill="#FFF4DE"/>
<path d="M89.2122 92.3081C89.8391 92.3081 90.3473 91.7997 90.3473 91.1726C90.3473 90.5455 89.8391 90.0371 89.2122 90.0371C88.5853 90.0371 88.0771 90.5455 88.0771 91.1726C88.0771 91.7997 88.5853 92.3081 89.2122 92.3081Z" fill="#FFA722"/>
<path d="M94.848 92.3819C95.4749 92.3819 95.9831 91.8735 95.9831 91.2463C95.9831 90.6192 95.4749 90.1108 94.848 90.1108C94.2211 90.1108 93.7129 90.6192 93.7129 91.2463C93.7129 91.8735 94.2211 92.3819 94.848 92.3819Z" fill="#FFA722"/>
<path d="M100.484 92.3819C101.111 92.3819 101.619 91.8735 101.619 91.2463C101.619 90.6192 101.111 90.1108 100.484 90.1108C99.8568 90.1108 99.3486 90.6192 99.3486 91.2463C99.3486 91.8735 99.8568 92.3819 100.484 92.3819Z" fill="#FFA722"/>
<path d="M143.833 109.284H97.6886C97.1789 109.283 96.6766 109.406 96.2246 109.641C95.7726 109.877 95.3844 110.219 95.093 110.637C94.8016 111.056 94.6158 111.538 94.5514 112.044C94.487 112.55 94.546 113.064 94.7232 113.542L106.358 145.166H160.394L148.362 112.435C148.02 111.509 147.402 110.711 146.592 110.148C145.782 109.584 144.819 109.283 143.833 109.284Z" fill="#F98038"/>
<path d="M142.925 110.888H97.9296C97.4337 110.888 96.9451 111.008 96.5054 111.237C96.0658 111.467 95.6881 111.799 95.4044 112.206C95.1207 112.613 94.9396 113.083 94.8763 113.575C94.813 114.067 94.8694 114.567 95.0408 115.032L106.392 145.87H159.074L147.343 113.971C147.01 113.066 146.408 112.286 145.618 111.735C144.828 111.184 143.888 110.888 142.925 110.888Z" fill="#FFA722"/>
<path d="M106.252 145.157H194.767C195.361 145.157 195.949 145.274 196.498 145.502C197.046 145.729 197.545 146.062 197.965 146.483C198.385 146.903 198.718 147.402 198.946 147.951C199.173 148.5 199.29 149.088 199.29 149.682V149.804H110.776C109.576 149.804 108.426 149.328 107.577 148.479C106.729 147.63 106.252 146.479 106.252 145.279V145.157Z" fill="#F98038"/>
<path d="M129.632 132.075C131.285 130.239 130.789 127.096 128.523 125.056C126.258 123.015 123.082 122.85 121.429 124.686C119.776 126.522 120.273 129.665 122.538 131.705C124.804 133.746 127.98 133.911 129.632 132.075Z" fill="#FFD473"/>
<path d="M171.818 146.821H168.047V148.175H171.818V146.821Z" fill="#3A193F"/>
<path d="M179.024 146.821H175.252V148.175H179.024V146.821Z" fill="#F98038"/>
<path d="M269.206 137.09H267.748V134.135H254.436V147.585C254.435 147.917 254.5 148.245 254.627 148.552C254.754 148.859 254.94 149.138 255.175 149.372C255.409 149.607 255.688 149.793 255.994 149.92C256.301 150.047 256.63 150.112 256.961 150.111H265.222C265.892 150.111 266.534 149.845 267.008 149.371C267.481 148.898 267.748 148.255 267.748 147.585V143H269.206C269.99 143 270.741 142.689 271.295 142.135C271.849 141.58 272.16 140.829 272.16 140.045C272.16 139.261 271.849 138.51 271.295 137.955C270.741 137.401 269.99 137.09 269.206 137.09ZM270.245 141.147C270.1 141.291 269.929 141.406 269.74 141.484C269.551 141.562 269.348 141.601 269.144 141.601H267.748V138.478H269.144C269.452 138.478 269.753 138.568 270.009 138.739C270.265 138.91 270.465 139.153 270.583 139.438C270.701 139.723 270.732 140.036 270.672 140.338C270.611 140.64 270.463 140.918 270.245 141.135V141.147Z" fill="white" stroke="#F98038" stroke-width="3" stroke-miterlimit="10"/>
<path d="M262.106 132.874C261.405 132.156 257.733 129.751 258.553 126.291C259.373 122.831 264.572 123.58 264.413 119.714C264.277 116.435 261.405 117.749 260.775 118.944C260.775 118.944 261.155 114.618 265.106 116.063C271.774 118.501 264.033 125.431 261.82 127.347C259.788 129.11 262.106 132.874 262.106 132.874Z" fill="#FFF4DE"/>
<path d="M266.769 123.6C266.769 123.6 265.917 126.521 262.452 127.958C262.452 127.958 267.77 127.958 266.769 123.6Z" fill="#FFF4DE"/>
<path d="M305.126 150.111C305.126 150.111 315.104 95.4279 265.131 87.7944" stroke="#F98038" stroke-width="3" stroke-miterlimit="10"/>
<path d="M305.322 149.807H278.721C280.577 145.501 285.815 142.395 292.021 142.395C298.227 142.395 303.466 145.501 305.322 149.807Z" fill="#FFA722"/>
<path d="M305.321 149.807H301.973C300.211 145.722 295.228 142.775 289.354 142.775C288.939 142.775 288.531 142.775 288.128 142.821C289.406 142.537 290.712 142.394 292.021 142.395C298.21 142.395 303.466 145.501 305.321 149.807Z" fill="#F98038"/>
<path d="M265.56 88.3053C265.318 89.3869 264.467 90.2328 263.258 90.7466C261.873 91.3371 260.017 91.4932 258.088 91.0646C256.158 90.6359 254.544 89.7247 253.53 88.5892C252.651 87.6126 252.234 86.4857 252.472 85.4041C252.986 83.082 256.331 81.8471 259.947 82.6448C263.562 83.4425 266.073 85.9775 265.56 88.3053Z" fill="#FFA722"/>
<path d="M265.56 88.3064C265.336 89.3198 264.569 90.1289 263.474 90.6512C263.989 90.2448 264.352 89.6768 264.504 89.0388C264.984 86.8699 262.64 84.5109 259.271 83.7643C256.093 83.0632 253.136 84.0482 252.407 85.9786C252.41 85.7876 252.432 85.5975 252.472 85.4108C252.986 83.0859 256.332 81.851 259.947 82.6487C263.562 83.4464 266.073 85.9814 265.56 88.3064Z" fill="#FFA722"/>
<path d="M262.526 90.2042C261.142 90.6938 259.65 90.7852 258.217 90.468C256.784 90.1509 255.469 89.4379 254.421 88.4101C253.953 87.3881 256.717 87.0305 258.871 87.5074C261.025 87.9843 263.417 89.6648 262.526 90.2042Z" fill="#F98038"/>
<path d="M67.8414 65.1777H162.431V73.8417L67.8215 65.8448C67.5718 65.8193 67.5888 65.1777 67.8414 65.1777Z" fill="#FFF4DE"/>
<path d="M152.232 22.3267H148.254C147.447 22.3267 146.792 22.9812 146.792 23.7886V56.3918C146.792 57.1992 147.447 57.8538 148.254 57.8538H152.232C153.04 57.8538 153.694 57.1992 153.694 56.3918V23.7886C153.694 22.9812 153.04 22.3267 152.232 22.3267Z" fill="white" stroke="#F98038" stroke-width="3" stroke-miterlimit="10"/>
<path d="M144.939 25.333H140.189C139.401 25.333 138.762 25.9723 138.762 26.7609V57.13C138.762 57.9186 139.401 58.5579 140.189 58.5579H144.939C145.728 58.5579 146.367 57.9186 146.367 57.13V26.7609C146.367 25.9723 145.728 25.333 144.939 25.333Z" fill="#F98038"/>
<path d="M137.431 17.2651H136.148C135.413 17.2651 134.817 17.8612 134.817 18.5965V57.2264C134.817 57.9617 135.413 58.5578 136.148 58.5578H137.431C138.166 58.5578 138.762 57.9617 138.762 57.2264V18.5965C138.762 17.8612 138.166 17.2651 137.431 17.2651Z" fill="#D6EAF2"/>
<path d="M133.075 27.7402H129.658C128.853 27.7402 128.2 28.3935 128.2 29.1994V56.6786C128.2 57.4845 128.853 58.1377 129.658 58.1377H133.075C133.88 58.1377 134.534 57.4845 134.534 56.6786V29.1994C134.534 28.3935 133.88 27.7402 133.075 27.7402Z" fill="white" stroke="#F98038" stroke-width="3" stroke-miterlimit="10"/>
<path d="M116.42 58.5578H110.892L124.721 21.4921C124.774 21.3484 124.87 21.2245 124.996 21.1368C125.122 21.049 125.271 21.0017 125.424 21.001H129.346C129.469 21.0026 129.589 21.0338 129.697 21.0919C129.805 21.15 129.897 21.2332 129.967 21.3346C130.036 21.4359 130.079 21.5524 130.094 21.6742C130.108 21.796 130.093 21.9195 130.05 22.0343L116.42 58.5578Z" fill="#F98038"/>
<path d="M162.161 58.5576H68.0481V64.7689H162.161V58.5576Z" fill="white" stroke="#F98038" stroke-width="3" stroke-miterlimit="10"/>
<path d="M77.5609 44.7866H101.307V47.3954C101.307 50.3566 100.131 53.1964 98.0381 55.2902C95.945 57.384 93.1062 58.5603 90.1462 58.5603H88.7103C85.7503 58.5603 82.9115 57.384 80.8185 55.2902C78.7254 53.1964 77.5496 50.3566 77.5496 47.3954V44.7866H77.5609Z" fill="#F98038"/>
<path d="M98.9318 44.7867H81.3379C81.3379 44.7867 76.1903 48.9853 73.2533 45.5418C71.125 43.0494 81.3067 42.9387 81.3067 42.9387L81.6132 42.8308C81.6132 42.8308 77.2459 33.6559 81.3748 32.1258C84.2125 31.067 84.9163 38.8395 85.0639 41.3632C86.565 40.7358 89.4935 39.8302 89.7461 42.2148C89.7461 42.2148 90.0724 32.3955 94.1843 33.3323C97.6038 34.113 92.5327 43.3418 92.5327 43.3418L92.8875 43.5575C92.8875 43.5575 102.283 36.6934 104.587 38.2888C106.33 39.4953 98.9318 44.7867 98.9318 44.7867Z" fill="#A1CBE2"/>
<path d="M84.031 44.7869C84.031 44.7869 84.2126 36.3217 87.3994 36.5545C90.5862 36.7873 86.1451 44.7869 86.1451 44.7869H84.031Z" fill="#D6EAF2"/>
<path d="M84.0307 44.7867C84.0307 44.7867 80.8355 36.7985 76.5051 38.8452C72.274 40.8324 81.3746 44.7867 81.3746 44.7867H84.0307Z" fill="#D6EAF2"/>
<path d="M90.5972 44.787C90.5972 44.787 93.4661 37.5907 98.015 38.2749C102.564 38.959 92.3991 44.787 92.3991 44.787H90.5972Z" fill="#D6EAF2"/>
<path d="M95.2769 44.7865C95.2769 44.7865 104.176 40.3041 105.776 43.0066C107.377 45.7091 95.2769 44.7865 95.2769 44.7865Z" fill="#D6EAF2"/>
<path fill-rule="evenodd" clip-rule="evenodd" d="M205.258 79.5168C205.719 79.8262 205.842 80.4506 205.533 80.9115C204.468 82.4999 203.231 83.2671 202.211 83.6196C201.708 83.7934 201.27 83.8622 200.947 83.8865C200.786 83.8986 200.653 83.8997 200.554 83.897C200.504 83.8957 200.463 83.8934 200.431 83.8911C200.415 83.89 200.401 83.8888 200.39 83.8877L200.375 83.8862L200.368 83.8856L200.366 83.8853L200.364 83.8851C200.364 83.885 200.363 83.885 200.476 82.8929L200.363 83.885C199.812 83.8222 199.416 83.3243 199.479 82.7728C199.541 82.2259 200.031 81.8316 200.576 81.8863M200.589 81.8876L200.588 81.8875L200.585 81.8872L200.582 81.8868L200.577 81.8863C200.575 81.8862 200.574 81.8861 200.574 81.8861C200.574 81.8861 200.575 81.8862 200.575 81.8862C200.576 81.8862 200.576 81.8862 200.576 81.8863C200.58 81.8865 200.591 81.8872 200.608 81.8877C200.644 81.8886 200.709 81.8887 200.797 81.882C200.973 81.8688 201.238 81.8292 201.556 81.7195C202.177 81.505 203.052 81.0046 203.865 79.7912C204.174 79.3304 204.798 79.2075 205.258 79.5168M200.589 81.8876C200.589 81.8876 200.589 81.8876 200.589 81.8876L200.589 81.8876C200.589 81.8876 200.589 81.8876 200.589 81.8876Z" fill="#3A1A3F"/>
<path d="M209.804 74.8467C209.804 74.8467 209.804 72.2578 212.074 72.2918" stroke="#E2564B" stroke-width="3" stroke-linecap="round" stroke-linejoin="round"/>
<path d="M210.329 73.4473L211.842 74.1541" stroke="#E2564B" stroke-width="3" stroke-linecap="round" stroke-linejoin="round"/>
<path d="M213.851 77.5235C214.486 77.5235 215 77.0088 215 76.3738C215 75.7389 214.486 75.2241 213.851 75.2241C213.216 75.2241 212.702 75.7389 212.702 76.3738C212.702 77.0088 213.216 77.5235 213.851 77.5235Z" fill="#FFCDC5"/>
<path fill-rule="evenodd" clip-rule="evenodd" d="M198.93 74.2192C199.485 74.2192 199.934 74.6692 199.934 75.2243V78.984L200.49 79.2095C201.004 79.4178 201.252 80.0038 201.044 80.5183C200.836 81.0328 200.25 81.281 199.736 81.0726L198.553 80.5929C198.174 80.4392 197.926 80.0707 197.926 79.6613V75.2243C197.926 74.6692 198.376 74.2192 198.93 74.2192Z" fill="#E2564B"/>
<path fill-rule="evenodd" clip-rule="evenodd" d="M201.525 72.2059C201.526 72.2051 201.527 72.2041 201.529 72.2028C201.542 72.1948 201.571 72.1771 201.615 72.1548C201.704 72.1101 201.854 72.0476 202.06 72.0047C202.459 71.9218 203.127 71.8992 204.053 72.3146C204.559 72.5417 205.153 72.3152 205.38 71.8087C205.607 71.3022 205.38 70.7075 204.874 70.4804C203.561 69.8908 202.462 69.8682 201.652 70.0366C201.254 70.1193 200.94 70.2452 200.716 70.3576C200.604 70.4137 200.514 70.4667 200.447 70.5097C200.413 70.5312 200.385 70.5503 200.363 70.566C200.352 70.5739 200.342 70.581 200.334 70.5871L200.323 70.5957L200.318 70.5994L200.315 70.6011L200.314 70.6019C200.314 70.6023 200.313 70.6027 200.928 71.3975L200.313 70.6027C199.875 70.9425 199.795 71.5738 200.134 72.0127C200.469 72.4457 201.087 72.5298 201.525 72.2059Z" fill="#3A1A3F"/>
<path d="M203.096 75.5768C203.521 75.5024 203.787 74.9964 203.69 74.4466C203.594 73.8969 203.172 73.5115 202.747 73.5859C202.323 73.6604 202.057 74.1664 202.153 74.7161C202.249 75.2659 202.671 75.6512 203.096 75.5768Z" fill="#242854"/>
<path d="M195.98 77.3859C196.4 77.2871 196.636 76.7666 196.508 76.2233C196.38 75.68 195.937 75.3196 195.517 75.4184C195.098 75.5171 194.861 76.0376 194.989 76.5809C195.117 77.1242 195.56 77.4846 195.98 77.3859Z" fill="#242854"/>
<path d="M160.232 248.344C160.232 248.344 147.161 204.627 146.094 192.38C144.755 176.986 194.407 166.655 194.407 166.655" stroke="#639AD6" stroke-width="3" stroke-miterlimit="10"/>
</g>
<defs>
<clipPath id="clip0_1493_1899">
<rect width="343" height="192" rx="16" fill="white"/>
</clipPath>
</defs>
</svg>
