<svg width="96" height="30" viewBox="0 0 96 30" fill="none" xmlns="http://www.w3.org/2000/svg">
<path d="M31.1387 5.14307V12.4871H32.7535V10.1214L33.6792 9.18535L35.8907 12.4871H37.917L34.7695 8.04364L37.6392 5.14307H35.6232L32.7535 8.18764V5.14307H31.1387Z" fill="#0055A6"/>
<path d="M38.4074 7.16935V12.4871H39.8679V9.69964C39.8679 9.15792 39.9571 8.7705 40.1354 8.53735C40.3137 8.29735 40.6017 8.17735 40.9994 8.17735C41.3491 8.17735 41.5925 8.28707 41.7297 8.5065C41.8668 8.71907 41.9354 9.04478 41.9354 9.48364V12.4871H43.3959V9.21621C43.3959 8.88707 43.3651 8.58878 43.3034 8.32135C43.2485 8.04707 43.1491 7.81735 43.0051 7.63221C42.8611 7.44021 42.6622 7.29278 42.4085 7.18992C42.1617 7.08021 41.8428 7.02535 41.4519 7.02535C41.1434 7.02535 40.8417 7.09735 40.5468 7.24135C40.2519 7.3785 40.0119 7.60135 39.8268 7.90992H39.7959V7.16935H38.4074Z" fill="#0055A6"/>
<path d="M45.8005 9.83335C45.8005 9.62078 45.821 9.41164 45.8622 9.20592C45.9033 9.00021 45.9719 8.8185 46.0679 8.66078C46.1708 8.50307 46.3045 8.37621 46.469 8.28021C46.6336 8.17735 46.8393 8.12592 47.0862 8.12592C47.333 8.12592 47.5388 8.17735 47.7033 8.28021C47.8748 8.37621 48.0085 8.50307 48.1045 8.66078C48.2073 8.8185 48.2793 9.00021 48.3205 9.20592C48.3616 9.41164 48.3822 9.62078 48.3822 9.83335C48.3822 10.0459 48.3616 10.2551 48.3205 10.4608C48.2793 10.6596 48.2073 10.8414 48.1045 11.0059C48.0085 11.1636 47.8748 11.2905 47.7033 11.3865C47.5388 11.4825 47.333 11.5305 47.0862 11.5305C46.8393 11.5305 46.6336 11.4825 46.469 11.3865C46.3045 11.2905 46.1708 11.1636 46.0679 11.0059C45.9719 10.8414 45.9033 10.6596 45.8622 10.4608C45.821 10.2551 45.8005 10.0459 45.8005 9.83335ZM44.3399 9.83335C44.3399 10.2585 44.405 10.6425 44.5353 10.9854C44.6656 11.3282 44.8508 11.6231 45.0908 11.8699C45.3308 12.1099 45.6188 12.2951 45.9548 12.4254C46.2908 12.5556 46.6679 12.6208 47.0862 12.6208C47.5045 12.6208 47.8816 12.5556 48.2176 12.4254C48.5605 12.2951 48.8519 12.1099 49.0919 11.8699C49.3319 11.6231 49.517 11.3282 49.6473 10.9854C49.7776 10.6425 49.8428 10.2585 49.8428 9.83335C49.8428 9.40821 49.7776 9.02421 49.6473 8.68135C49.517 8.33164 49.3319 8.03678 49.0919 7.79678C48.8519 7.54992 48.5605 7.36135 48.2176 7.23107C47.8816 7.09392 47.5045 7.02535 47.0862 7.02535C46.6679 7.02535 46.2908 7.09392 45.9548 7.23107C45.6188 7.36135 45.3308 7.54992 45.0908 7.79678C44.8508 8.03678 44.6656 8.33164 44.5353 8.68135C44.405 9.02421 44.3399 9.40821 44.3399 9.83335Z" fill="#0055A6"/>
<path d="M56.8713 12.4871L58.5479 7.16935H57.0461L56.069 10.7694H56.0484L55.1433 7.16935H53.7239L52.8393 10.7796H52.8187L51.8416 7.16935H50.2987L51.9856 12.4871H53.4976L54.4027 8.91792H54.4233L55.3696 12.4871H56.8713Z" fill="#0055A6"/>
<path d="M59.2108 5.14307V12.4871H60.6714V5.14307H59.2108Z" fill="#0055A6"/>
<path d="M65.4009 9.25735H63.0249C63.0317 9.1545 63.0523 9.03792 63.0866 8.90764C63.1277 8.77735 63.1929 8.65392 63.282 8.53735C63.378 8.42078 63.5014 8.32478 63.6523 8.24935C63.81 8.16707 64.0054 8.12592 64.2386 8.12592C64.5952 8.12592 64.8592 8.22192 65.0306 8.41392C65.2089 8.60592 65.3323 8.88707 65.4009 9.25735ZM63.0249 10.1831H66.8614C66.8889 9.77164 66.8546 9.37735 66.7586 9.00021C66.6626 8.62307 66.5049 8.28707 66.2854 7.99221C66.0729 7.69735 65.7986 7.46421 65.4626 7.29278C65.1266 7.1145 64.7323 7.02535 64.2797 7.02535C63.8752 7.02535 63.5049 7.09735 63.1689 7.24135C62.8397 7.38535 62.5552 7.58421 62.3152 7.83792C62.0752 8.08478 61.89 8.37964 61.7597 8.7225C61.6294 9.06535 61.5643 9.43564 61.5643 9.83335C61.5643 10.2448 61.626 10.6219 61.7494 10.9648C61.8797 11.3076 62.0614 11.6025 62.2946 11.8494C62.5277 12.0962 62.8123 12.2882 63.1483 12.4254C63.4843 12.5556 63.8614 12.6208 64.2797 12.6208C64.8832 12.6208 65.3974 12.4836 65.8226 12.2094C66.2477 11.9351 66.5632 11.4791 66.7689 10.8414H65.4832C65.4352 11.0059 65.3049 11.1636 65.0923 11.3145C64.8797 11.4585 64.626 11.5305 64.3312 11.5305C63.9197 11.5305 63.6043 11.4242 63.3849 11.2116C63.1654 10.9991 63.0454 10.6562 63.0249 10.1831Z" fill="#0055A6"/>
<path d="M71.5025 9.81278C71.5025 10.0322 71.482 10.2448 71.4408 10.4505C71.3997 10.6562 71.3311 10.8414 71.2351 11.0059C71.1391 11.1636 71.0088 11.2905 70.8443 11.3865C70.6866 11.4825 70.4877 11.5305 70.2477 11.5305C70.0214 11.5305 69.826 11.4825 69.6614 11.3865C69.5037 11.2836 69.37 11.1534 69.2603 10.9956C69.1574 10.8311 69.082 10.6459 69.034 10.4402C68.986 10.2345 68.962 10.0288 68.962 9.82307C68.962 9.60364 68.9825 9.3945 69.0237 9.19564C69.0717 8.98992 69.1437 8.80821 69.2397 8.6505C69.3425 8.49278 69.4763 8.36592 69.6408 8.26992C69.8054 8.17392 70.0077 8.12592 70.2477 8.12592C70.4877 8.12592 70.6866 8.17392 70.8443 8.26992C71.002 8.36592 71.1288 8.49278 71.2248 8.6505C71.3277 8.80135 71.3997 8.97964 71.4408 9.18535C71.482 9.38421 71.5025 9.59335 71.5025 9.81278ZM71.5231 11.8082V12.4871H72.9117V5.14307H71.4511V7.81735H71.4305C71.266 7.55678 71.0397 7.36135 70.7517 7.23107C70.4705 7.09392 70.1723 7.02535 69.8568 7.02535C69.466 7.02535 69.1231 7.10421 68.8283 7.26192C68.5334 7.41278 68.2865 7.61507 68.0877 7.86878C67.8957 8.1225 67.7483 8.41735 67.6454 8.75335C67.5494 9.0825 67.5014 9.42535 67.5014 9.78192C67.5014 10.1522 67.5494 10.5088 67.6454 10.8516C67.7483 11.1945 67.8957 11.4996 68.0877 11.7671C68.2865 12.0276 68.5368 12.2368 68.8385 12.3945C69.1403 12.5454 69.49 12.6208 69.8877 12.6208C70.2374 12.6208 70.5494 12.5591 70.8237 12.4356C71.1048 12.3054 71.3311 12.0962 71.5025 11.8082H71.5231Z" fill="#0055A6"/>
<path d="M76.4945 11.2322C76.2682 11.2322 76.0796 11.1842 75.9288 11.0882C75.7779 10.9922 75.6545 10.8688 75.5585 10.7179C75.4693 10.5671 75.4042 10.3991 75.3631 10.2139C75.3288 10.0219 75.3116 9.82992 75.3116 9.63792C75.3116 9.43907 75.3322 9.2505 75.3734 9.07221C75.4213 8.88707 75.4934 8.72592 75.5893 8.58878C75.6922 8.44478 75.8156 8.33164 75.9596 8.24935C76.1105 8.16707 76.2888 8.12592 76.4945 8.12592C76.7345 8.12592 76.9334 8.1705 77.0911 8.25964C77.2488 8.34878 77.3756 8.46878 77.4716 8.61964C77.5676 8.7705 77.6362 8.94535 77.6773 9.14421C77.7185 9.33621 77.7391 9.54192 77.7391 9.76135C77.7391 9.95335 77.7116 10.1385 77.6568 10.3168C77.6088 10.4882 77.5334 10.6425 77.4305 10.7796C77.3276 10.9168 77.1973 11.0265 77.0396 11.1088C76.8819 11.1911 76.7002 11.2322 76.4945 11.2322ZM79.1276 12.1476V7.16935H77.7391V7.87907H77.7185C77.5402 7.5705 77.3174 7.35107 77.0499 7.22078C76.7894 7.0905 76.4842 7.02535 76.1345 7.02535C75.7642 7.02535 75.4351 7.09735 75.1471 7.24135C74.8659 7.38535 74.6294 7.58078 74.4374 7.82764C74.2453 8.06764 74.0979 8.34878 73.9951 8.67107C73.8991 8.9865 73.8511 9.31564 73.8511 9.6585C73.8511 10.0219 73.8922 10.3682 73.9745 10.6974C74.0636 11.0196 74.2008 11.3042 74.3859 11.5511C74.5711 11.7911 74.8076 11.9831 75.0956 12.1271C75.3836 12.2642 75.7265 12.3328 76.1242 12.3328C76.4465 12.3328 76.7516 12.2676 77.0396 12.1374C77.3345 12.0002 77.5608 11.7911 77.7185 11.5099H77.7391V12.2094C77.7459 12.5865 77.6534 12.8985 77.4613 13.1454C77.2762 13.3922 76.9779 13.5156 76.5665 13.5156C76.3059 13.5156 76.0762 13.4608 75.8773 13.3511C75.6785 13.2482 75.5448 13.0596 75.4762 12.7854H74.0259C74.0465 13.0871 74.1288 13.3442 74.2728 13.5568C74.4236 13.7762 74.6088 13.9545 74.8282 14.0916C75.0545 14.2288 75.3013 14.3282 75.5688 14.3899C75.8431 14.4585 76.1105 14.4928 76.3711 14.4928C76.9813 14.4928 77.4682 14.4105 77.8316 14.2459C78.1951 14.0814 78.4728 13.8791 78.6648 13.6391C78.8568 13.4059 78.9802 13.1522 79.0351 12.8779C79.0968 12.6036 79.1276 12.3602 79.1276 12.1476Z" fill="#0055A6"/>
<path d="M83.883 9.25735H81.507C81.5139 9.1545 81.5344 9.03792 81.5687 8.90764C81.6099 8.77735 81.675 8.65392 81.7642 8.53735C81.8602 8.42078 81.9836 8.32478 82.1344 8.24935C82.2922 8.16707 82.4876 8.12592 82.7207 8.12592C83.0773 8.12592 83.3413 8.22192 83.5127 8.41392C83.691 8.60592 83.8144 8.88707 83.883 9.25735ZM81.507 10.1831H85.3436C85.371 9.77164 85.3367 9.37735 85.2407 9.00021C85.1447 8.62307 84.987 8.28707 84.7676 7.99221C84.555 7.69735 84.2807 7.46421 83.9447 7.29278C83.6087 7.1145 83.2144 7.02535 82.7619 7.02535C82.3573 7.02535 81.987 7.09735 81.651 7.24135C81.3219 7.38535 81.0373 7.58421 80.7973 7.83792C80.5573 8.08478 80.3722 8.37964 80.2419 8.7225C80.1116 9.06535 80.0464 9.43564 80.0464 9.83335C80.0464 10.2448 80.1082 10.6219 80.2316 10.9648C80.3619 11.3076 80.5436 11.6025 80.7767 11.8494C81.0099 12.0962 81.2944 12.2882 81.6304 12.4254C81.9664 12.5556 82.3436 12.6208 82.7619 12.6208C83.3653 12.6208 83.8796 12.4836 84.3047 12.2094C84.7299 11.9351 85.0453 11.4791 85.251 10.8414H83.9653C83.9173 11.0059 83.787 11.1636 83.5744 11.3145C83.3619 11.4585 83.1082 11.5305 82.8133 11.5305C82.4019 11.5305 82.0864 11.4242 81.867 11.2116C81.6476 10.9991 81.5276 10.6562 81.507 10.1831Z" fill="#0055A6"/>
<path d="M31.1382 15.4287V22.7727H32.6502V17.6196H32.6708L34.4708 22.7727H35.7153L37.5153 17.5681H37.5359V22.7727H39.0479V15.4287H36.7748L35.1496 20.479H35.129L33.4113 15.4287H31.1382Z" fill="#F98038"/>
<path d="M40.2537 19.0904C40.2742 18.7476 40.3599 18.463 40.5108 18.2367C40.6617 18.0104 40.8537 17.8287 41.0868 17.6916C41.3199 17.5544 41.5805 17.4584 41.8685 17.4036C42.1634 17.3419 42.4582 17.311 42.7531 17.311C43.0205 17.311 43.2914 17.3316 43.5657 17.3727C43.8399 17.407 44.0902 17.479 44.3165 17.5887C44.5428 17.6984 44.7279 17.8527 44.8719 18.0516C45.0159 18.2436 45.0879 18.5007 45.0879 18.823V21.5899C45.0879 21.8299 45.1017 22.0596 45.1291 22.279C45.1565 22.4984 45.2045 22.663 45.2731 22.7727H43.7919C43.7645 22.6904 43.7405 22.6081 43.7199 22.5259C43.7062 22.4367 43.6959 22.3476 43.6891 22.2584C43.4559 22.4984 43.1817 22.6664 42.8662 22.7624C42.5508 22.8584 42.2285 22.9064 41.8994 22.9064C41.6457 22.9064 41.4091 22.8756 41.1897 22.8139C40.9702 22.7521 40.7782 22.6561 40.6137 22.5259C40.4491 22.3956 40.3188 22.231 40.2228 22.0321C40.1337 21.8333 40.0891 21.5967 40.0891 21.3224C40.0891 21.0207 40.1405 20.7739 40.2434 20.5819C40.3531 20.383 40.4902 20.2253 40.6548 20.1087C40.8262 19.9921 41.0182 19.9064 41.2308 19.8516C41.4502 19.7899 41.6697 19.7419 41.8891 19.7076C42.1085 19.6733 42.3245 19.6459 42.5371 19.6253C42.7497 19.6047 42.9382 19.5739 43.1028 19.5327C43.2674 19.4916 43.3977 19.4333 43.4937 19.3579C43.5897 19.2756 43.6342 19.159 43.6274 19.0081C43.6274 18.8504 43.5999 18.727 43.5451 18.6379C43.4971 18.5419 43.4285 18.4699 43.3394 18.4219C43.2571 18.367 43.1577 18.3327 43.0411 18.319C42.9314 18.2984 42.8114 18.2881 42.6811 18.2881C42.3931 18.2881 42.1668 18.3499 42.0022 18.4733C41.8377 18.5967 41.7417 18.8024 41.7142 19.0904H40.2537ZM43.6274 20.1704C43.5657 20.2253 43.4868 20.2699 43.3908 20.3041C43.3017 20.3316 43.2022 20.3556 43.0925 20.3761C42.9897 20.3967 42.8799 20.4139 42.7634 20.4276C42.6468 20.4413 42.5302 20.4584 42.4137 20.479C42.3039 20.4996 42.1942 20.527 42.0845 20.5613C41.9817 20.5956 41.8891 20.6436 41.8068 20.7053C41.7314 20.7601 41.6697 20.8321 41.6217 20.9213C41.5737 21.0104 41.5497 21.1236 41.5497 21.2607C41.5497 21.391 41.5737 21.5007 41.6217 21.5899C41.6697 21.679 41.7348 21.751 41.8171 21.8059C41.8994 21.8539 41.9954 21.8881 42.1051 21.9087C42.2148 21.9293 42.3279 21.9396 42.4445 21.9396C42.7325 21.9396 42.9554 21.8916 43.1131 21.7956C43.2708 21.6996 43.3874 21.5864 43.4628 21.4561C43.5382 21.319 43.5828 21.1819 43.5965 21.0447C43.6171 20.9076 43.6274 20.7979 43.6274 20.7156V20.1704Z" fill="#F98038"/>
<path d="M46.2216 17.455V22.7727H47.6822V19.9853C47.6822 19.4436 47.7713 19.0561 47.9496 18.823C48.1279 18.583 48.4159 18.463 48.8136 18.463C49.1633 18.463 49.4068 18.5727 49.5439 18.7921C49.681 19.0047 49.7496 19.3304 49.7496 19.7693V22.7727H51.2102V19.5019C51.2102 19.1727 51.1793 18.8744 51.1176 18.607C51.0628 18.3327 50.9633 18.103 50.8193 17.9179C50.6753 17.7259 50.4765 17.5784 50.2228 17.4756C49.9759 17.3659 49.657 17.311 49.2662 17.311C48.9576 17.311 48.6559 17.383 48.361 17.527C48.0662 17.6641 47.8262 17.887 47.6411 18.1956H47.6102V17.455H46.2216Z" fill="#F98038"/>
<path d="M52.257 19.0904C52.2776 18.7476 52.3633 18.463 52.5141 18.2367C52.665 18.0104 52.857 17.8287 53.0901 17.6916C53.3233 17.5544 53.5839 17.4584 53.8719 17.4036C54.1667 17.3419 54.4616 17.311 54.7564 17.311C55.0239 17.311 55.2947 17.3316 55.569 17.3727C55.8433 17.407 56.0936 17.479 56.3199 17.5887C56.5461 17.6984 56.7313 17.8527 56.8753 18.0516C57.0193 18.2436 57.0913 18.5007 57.0913 18.823V21.5899C57.0913 21.8299 57.105 22.0596 57.1324 22.279C57.1599 22.4984 57.2079 22.663 57.2764 22.7727H55.7953C55.7679 22.6904 55.7439 22.6081 55.7233 22.5259C55.7096 22.4367 55.6993 22.3476 55.6924 22.2584C55.4593 22.4984 55.185 22.6664 54.8696 22.7624C54.5541 22.8584 54.2319 22.9064 53.9027 22.9064C53.649 22.9064 53.4124 22.8756 53.193 22.8139C52.9736 22.7521 52.7816 22.6561 52.617 22.5259C52.4524 22.3956 52.3221 22.231 52.2261 22.0321C52.137 21.8333 52.0924 21.5967 52.0924 21.3224C52.0924 21.0207 52.1439 20.7739 52.2467 20.5819C52.3564 20.383 52.4936 20.2253 52.6581 20.1087C52.8296 19.9921 53.0216 19.9064 53.2341 19.8516C53.4536 19.7899 53.673 19.7419 53.8924 19.7076C54.1119 19.6733 54.3279 19.6459 54.5404 19.6253C54.753 19.6047 54.9416 19.5739 55.1061 19.5327C55.2707 19.4916 55.401 19.4333 55.497 19.3579C55.593 19.2756 55.6376 19.159 55.6307 19.0081C55.6307 18.8504 55.6033 18.727 55.5484 18.6379C55.5004 18.5419 55.4319 18.4699 55.3427 18.4219C55.2604 18.367 55.161 18.3327 55.0444 18.319C54.9347 18.2984 54.8147 18.2881 54.6844 18.2881C54.3964 18.2881 54.1701 18.3499 54.0056 18.4733C53.841 18.5967 53.745 18.8024 53.7176 19.0904H52.257ZM55.6307 20.1704C55.569 20.2253 55.4901 20.2699 55.3941 20.3041C55.305 20.3316 55.2056 20.3556 55.0959 20.3761C54.993 20.3967 54.8833 20.4139 54.7667 20.4276C54.6501 20.4413 54.5336 20.4584 54.417 20.479C54.3073 20.4996 54.1976 20.527 54.0879 20.5613C53.985 20.5956 53.8924 20.6436 53.8101 20.7053C53.7347 20.7601 53.673 20.8321 53.625 20.9213C53.577 21.0104 53.553 21.1236 53.553 21.2607C53.553 21.391 53.577 21.5007 53.625 21.5899C53.673 21.679 53.7381 21.751 53.8204 21.8059C53.9027 21.8539 53.9987 21.8881 54.1084 21.9087C54.2181 21.9293 54.3313 21.9396 54.4479 21.9396C54.7359 21.9396 54.9587 21.8916 55.1164 21.7956C55.2741 21.6996 55.3907 21.5864 55.4661 21.4561C55.5416 21.319 55.5861 21.1819 55.5999 21.0447C55.6204 20.9076 55.6307 20.7979 55.6307 20.7156V20.1704Z" fill="#F98038"/>
<path d="M60.7038 21.5179C60.4775 21.5179 60.289 21.4699 60.1381 21.3739C59.9873 21.2779 59.8638 21.1544 59.7678 21.0036C59.6787 20.8527 59.6135 20.6847 59.5724 20.4996C59.5381 20.3076 59.521 20.1156 59.521 19.9236C59.521 19.7247 59.5415 19.5361 59.5827 19.3579C59.6307 19.1727 59.7027 19.0116 59.7987 18.8744C59.9015 18.7304 60.025 18.6173 60.169 18.535C60.3198 18.4527 60.4981 18.4116 60.7038 18.4116C60.9438 18.4116 61.1427 18.4561 61.3004 18.5453C61.4581 18.6344 61.585 18.7544 61.681 18.9053C61.777 19.0561 61.8455 19.231 61.8867 19.4299C61.9278 19.6219 61.9484 19.8276 61.9484 20.047C61.9484 20.239 61.921 20.4241 61.8661 20.6024C61.8181 20.7739 61.7427 20.9281 61.6398 21.0653C61.537 21.2024 61.4067 21.3121 61.249 21.3944C61.0913 21.4767 60.9095 21.5179 60.7038 21.5179ZM63.337 22.4333V17.455H61.9484V18.1647H61.9278C61.7495 17.8561 61.5267 17.6367 61.2593 17.5064C60.9987 17.3761 60.6935 17.311 60.3438 17.311C59.9735 17.311 59.6444 17.383 59.3564 17.527C59.0753 17.671 58.8387 17.8664 58.6467 18.1133C58.4547 18.3533 58.3073 18.6344 58.2044 18.9567C58.1084 19.2721 58.0604 19.6013 58.0604 19.9441C58.0604 20.3076 58.1015 20.6539 58.1838 20.983C58.273 21.3053 58.4101 21.5899 58.5953 21.8367C58.7804 22.0767 59.017 22.2687 59.305 22.4127C59.593 22.5499 59.9358 22.6184 60.3335 22.6184C60.6558 22.6184 60.961 22.5533 61.249 22.423C61.5438 22.2859 61.7701 22.0767 61.9278 21.7956H61.9484V22.495C61.9553 22.8721 61.8627 23.1841 61.6707 23.431C61.4855 23.6779 61.1873 23.8013 60.7758 23.8013C60.5153 23.8013 60.2855 23.7464 60.0867 23.6367C59.8878 23.5339 59.7541 23.3453 59.6855 23.071H58.2353C58.2558 23.3727 58.3381 23.6299 58.4821 23.8424C58.633 24.0619 58.8181 24.2401 59.0375 24.3773C59.2638 24.5144 59.5107 24.6139 59.7781 24.6756C60.0524 24.7441 60.3198 24.7784 60.5804 24.7784C61.1907 24.7784 61.6775 24.6961 62.041 24.5316C62.4044 24.367 62.6821 24.1647 62.8741 23.9247C63.0661 23.6916 63.1895 23.4379 63.2444 23.1636C63.3061 22.8893 63.337 22.6459 63.337 22.4333Z" fill="#F98038"/>
<path d="M68.0923 19.543H65.7163C65.7232 19.4401 65.7438 19.3236 65.7781 19.1933C65.8192 19.063 65.8843 18.9396 65.9735 18.823C66.0695 18.7064 66.1929 18.6104 66.3438 18.535C66.5015 18.4527 66.6969 18.4116 66.9301 18.4116C67.2866 18.4116 67.5506 18.5076 67.7221 18.6996C67.9003 18.8916 68.0238 19.1727 68.0923 19.543ZM65.7163 20.4687H69.5529C69.5803 20.0573 69.5461 19.663 69.4501 19.2859C69.3541 18.9087 69.1963 18.5727 68.9769 18.2779C68.7643 17.983 68.4901 17.7499 68.1541 17.5784C67.8181 17.4001 67.4238 17.311 66.9712 17.311C66.5666 17.311 66.1963 17.383 65.8603 17.527C65.5312 17.671 65.2466 17.8699 65.0066 18.1236C64.7666 18.3704 64.5815 18.6653 64.4512 19.0081C64.3209 19.351 64.2558 19.7213 64.2558 20.119C64.2558 20.5304 64.3175 20.9076 64.4409 21.2504C64.5712 21.5933 64.7529 21.8881 64.9861 22.135C65.2192 22.3819 65.5038 22.5739 65.8398 22.711C66.1758 22.8413 66.5529 22.9064 66.9712 22.9064C67.5746 22.9064 68.0889 22.7693 68.5141 22.495C68.9392 22.2207 69.2546 21.7647 69.4603 21.127H68.1746C68.1266 21.2916 67.9963 21.4493 67.7838 21.6001C67.5712 21.7441 67.3175 21.8161 67.0226 21.8161C66.6112 21.8161 66.2958 21.7099 66.0763 21.4973C65.8569 21.2847 65.7369 20.9419 65.7163 20.4687Z" fill="#F98038"/>
<path d="M70.4603 17.455V22.7727H71.9209V19.687C71.9209 19.4264 71.9586 19.2173 72.034 19.0596C72.1095 18.895 72.1986 18.7716 72.3015 18.6893C72.4112 18.6001 72.5209 18.5419 72.6306 18.5144C72.7472 18.4801 72.8397 18.463 72.9083 18.463C73.1415 18.463 73.3163 18.5041 73.4329 18.5864C73.5563 18.6619 73.642 18.7647 73.69 18.895C73.7449 19.0253 73.7757 19.1693 73.7826 19.327C73.7895 19.4779 73.7929 19.6321 73.7929 19.7899V22.7727H75.2535V19.8104C75.2535 19.6459 75.2637 19.4847 75.2843 19.327C75.3117 19.1624 75.3597 19.0184 75.4283 18.895C75.5037 18.7647 75.6032 18.6619 75.7266 18.5864C75.8569 18.5041 76.0249 18.463 76.2306 18.463C76.4363 18.463 76.5975 18.4973 76.714 18.5659C76.8375 18.6344 76.93 18.727 76.9917 18.8436C77.0535 18.9601 77.0912 19.0973 77.1049 19.255C77.1186 19.4127 77.1255 19.5807 77.1255 19.759V22.7727H78.586V19.2139C78.586 18.871 78.538 18.5796 78.442 18.3396C78.346 18.0927 78.2123 17.8939 78.0409 17.743C77.8695 17.5921 77.6637 17.4824 77.4237 17.4139C77.1837 17.3453 76.9232 17.311 76.642 17.311C76.2717 17.311 75.9495 17.4001 75.6752 17.5784C75.4077 17.7567 75.1952 17.9624 75.0375 18.1956C74.8935 17.8664 74.6809 17.6367 74.3997 17.5064C74.1255 17.3761 73.8203 17.311 73.4843 17.311C73.1346 17.311 72.8226 17.3864 72.5483 17.5373C72.2809 17.6881 72.0512 17.9007 71.8592 18.175H71.8386V17.455H70.4603Z" fill="#F98038"/>
<path d="M83.32 19.543H80.944C80.9509 19.4401 80.9715 19.3236 81.0057 19.1933C81.0469 19.063 81.112 18.9396 81.2012 18.823C81.2972 18.7064 81.4206 18.6104 81.5715 18.535C81.7292 18.4527 81.9246 18.4116 82.1577 18.4116C82.5143 18.4116 82.7783 18.5076 82.9497 18.6996C83.128 18.8916 83.2514 19.1727 83.32 19.543ZM80.944 20.4687H84.7806C84.808 20.0573 84.7737 19.663 84.6777 19.2859C84.5817 18.9087 84.424 18.5727 84.2046 18.2779C83.992 17.983 83.7177 17.7499 83.3817 17.5784C83.0457 17.4001 82.6515 17.311 82.1989 17.311C81.7943 17.311 81.424 17.383 81.088 17.527C80.7589 17.671 80.4743 17.8699 80.2343 18.1236C79.9943 18.3704 79.8092 18.6653 79.6789 19.0081C79.5486 19.351 79.4835 19.7213 79.4835 20.119C79.4835 20.5304 79.5452 20.9076 79.6686 21.2504C79.7989 21.5933 79.9806 21.8881 80.2137 22.135C80.4469 22.3819 80.7315 22.5739 81.0675 22.711C81.4035 22.8413 81.7806 22.9064 82.1989 22.9064C82.8023 22.9064 83.3166 22.7693 83.7417 22.495C84.1669 22.2207 84.4823 21.7647 84.688 21.127H83.4023C83.3543 21.2916 83.224 21.4493 83.0115 21.6001C82.7989 21.7441 82.5452 21.8161 82.2503 21.8161C81.8389 21.8161 81.5235 21.7099 81.304 21.4973C81.0846 21.2847 80.9646 20.9419 80.944 20.4687Z" fill="#F98038"/>
<path d="M85.6468 17.455V22.7727H87.1074V19.9853C87.1074 19.4436 87.1966 19.0561 87.3748 18.823C87.5531 18.583 87.8411 18.463 88.2388 18.463C88.5886 18.463 88.832 18.5727 88.9691 18.7921C89.1063 19.0047 89.1748 19.3304 89.1748 19.7693V22.7727H90.6354V19.5019C90.6354 19.1727 90.6046 18.8744 90.5428 18.607C90.488 18.3327 90.3886 18.103 90.2446 17.9179C90.1006 17.7259 89.9017 17.5784 89.648 17.4756C89.4011 17.3659 89.0823 17.311 88.6914 17.311C88.3828 17.311 88.0811 17.383 87.7863 17.527C87.4914 17.6641 87.2514 17.887 87.0663 18.1956H87.0354V17.455H85.6468Z" fill="#F98038"/>
<path d="M93.5954 17.455V15.8607H92.1348V17.455H91.2502V18.4321H92.1348V21.5693C92.1348 21.8367 92.1794 22.0527 92.2685 22.2173C92.3577 22.3819 92.4777 22.5087 92.6285 22.5979C92.7862 22.687 92.9645 22.7453 93.1634 22.7727C93.3691 22.807 93.5851 22.8241 93.8114 22.8241C93.9554 22.8241 94.1028 22.8207 94.2537 22.8139C94.4045 22.807 94.5417 22.7933 94.6651 22.7727V21.6413C94.5965 21.655 94.5245 21.6653 94.4491 21.6721C94.3737 21.679 94.2948 21.6824 94.2125 21.6824C93.9657 21.6824 93.8011 21.6413 93.7188 21.559C93.6365 21.4767 93.5954 21.3121 93.5954 21.0653V18.4321H94.6651V17.455H93.5954Z" fill="#F98038"/>
<path opacity="0.8" d="M12.8689 0L0 8.39396V8.40977L9.95106 14.8971L12.8689 12.9904V0Z" fill="#66D0F2"/>
<path opacity="0.8" d="M0 21.408L12.8689 29.794V16.8036L9.95106 14.897L0 21.3843V21.408Z" fill="#66D0F2"/>
<path opacity="0.8" d="M26.9991 8.60001L14.1304 0.206055V13.1965L17.0562 15.1031L26.9991 8.61582V8.60001Z" fill="#FBB388"/>
<path opacity="0.8" d="M14.1304 30.0002L26.9991 21.6062V21.5903L17.0562 15.103L14.1304 17.0097V30.0002Z" fill="#FBB388"/>
<path opacity="0.8" d="M0 8.40967V21.3843L9.95106 14.897L0 8.40967Z" fill="#00B0E9"/>
<path opacity="0.8" d="M26.9998 21.5903V8.61572L17.0566 15.103L26.9998 21.5903Z" fill="#F98038"/>
</svg>
