<svg width="40" height="40" viewBox="0 0 40 40" fill="none" xmlns="http://www.w3.org/2000/svg">
<rect width="40" height="40" rx="20" fill="#FF3C5A"/>
<path d="M20.0001 31C21.9892 31 23.8969 30.2098 25.3034 28.8033C26.7099 27.3968 27.5001 25.4891 27.5001 23.5C27.5001 22.634 27.2701 21.803 27.0001 21.03C25.3331 22.677 24.0671 23.5 23.2001 23.5C27.1951 16.5 25.0001 13.5 19.0001 9.5C19.5001 14.5 16.2041 16.774 14.8621 18.037C13.7674 19.0667 13.0073 20.4015 12.6804 21.8683C12.3534 23.3352 12.4747 24.8664 13.0284 26.2635C13.5822 27.6606 14.5429 28.8592 15.786 29.7037C17.0291 30.5483 18.4972 30.9999 20.0001 31ZM20.7101 13.235C23.9511 15.985 23.9671 18.122 21.4631 22.509C20.7021 23.842 21.6651 25.5 23.2001 25.5C23.8881 25.5 24.5841 25.3 25.3191 24.905C25.1012 25.728 24.6953 26.4892 24.1333 27.1286C23.5712 27.768 22.8684 28.2682 22.0802 28.5899C21.2919 28.9115 20.4398 29.0458 19.5908 28.9821C18.7419 28.9184 17.9193 28.6585 17.1879 28.2229C16.4565 27.7873 15.8361 27.1878 15.3758 26.4717C14.9154 25.7556 14.6276 24.9424 14.5349 24.0961C14.4423 23.2498 14.5473 22.3936 14.8418 21.5948C15.1363 20.7961 15.6122 20.0766 16.2321 19.493C16.3581 19.375 16.9971 18.808 17.0251 18.783C17.4491 18.403 17.7981 18.066 18.1431 17.697C19.3731 16.379 20.2571 14.917 20.7091 13.235H20.7101Z" fill="white"/>
</svg>
