<svg width="16" height="16" viewBox="0 0 16 16" fill="none" xmlns="http://www.w3.org/2000/svg">
<path d="M1.47607 9.37334C1.28434 8.46782 1.28434 7.53219 1.47607 6.62667C2.21607 6.71334 2.86274 6.46867 3.0734 5.95934C3.28474 5.44934 3.0014 4.81934 2.41607 4.35734C2.92076 3.58155 3.58229 2.92003 4.35807 2.41534C4.8194 3 5.45007 3.284 5.96007 3.07267C6.47007 2.86134 6.71474 2.21534 6.6274 1.47534C7.53292 1.28361 8.46855 1.28361 9.37407 1.47534C9.2874 2.21534 9.53207 2.862 10.0414 3.07267C10.5514 3.284 11.1814 3.00067 11.6434 2.41534C12.4192 2.92003 13.0807 3.58155 13.5854 4.35734C13.0007 4.81867 12.7167 5.44934 12.9281 5.95934C13.1394 6.46934 13.7854 6.714 14.5254 6.62667C14.7171 7.53219 14.7171 8.46782 14.5254 9.37334C13.7854 9.28667 13.1387 9.53134 12.9281 10.0407C12.7167 10.5507 13.0001 11.1807 13.5854 11.6427C13.0807 12.4185 12.4192 13.08 11.6434 13.5847C11.1821 13 10.5514 12.716 10.0414 12.9273C9.5314 13.1387 9.28674 13.7847 9.37407 14.5247C8.46855 14.7164 7.53292 14.7164 6.6274 14.5247C6.71407 13.7847 6.4694 13.138 5.96007 12.9273C5.45007 12.716 4.82007 12.9993 4.35807 13.5847C3.58229 13.08 2.92076 12.4185 2.41607 11.6427C3.00074 11.1813 3.28474 10.5507 3.0734 10.0407C2.86207 9.53067 2.21607 9.28601 1.47607 9.37334ZM2.6674 8.14C3.40074 8.34334 4.0054 8.808 4.3054 9.53067C4.60474 10.254 4.5054 11.0107 4.13074 11.672C4.19474 11.74 4.26074 11.806 4.32874 11.87C4.99074 11.4953 5.74674 11.3967 6.47007 11.6953C7.19274 11.9953 7.6574 12.6 7.86074 13.3333C7.95407 13.336 8.0474 13.336 8.14074 13.3333C8.34407 12.6 8.80874 11.9953 9.5314 11.6953C10.2547 11.396 11.0114 11.4953 11.6727 11.87C11.7407 11.806 11.8067 11.74 11.8707 11.672C11.4961 11.01 11.3974 10.254 11.6961 9.53067C11.9961 8.808 12.6007 8.34334 13.3341 8.14C13.3367 8.04667 13.3367 7.95334 13.3341 7.86C12.6007 7.65667 11.9961 7.19201 11.6961 6.46934C11.3967 5.74601 11.4961 4.98934 11.8707 4.328C11.8065 4.26027 11.7405 4.19425 11.6727 4.13C11.0107 4.50467 10.2547 4.60334 9.5314 4.30467C8.80874 4.00467 8.34407 3.4 8.14074 2.66667C8.04742 2.6642 7.95405 2.6642 7.86074 2.66667C7.6574 3.4 7.19274 4.00467 6.47007 4.30467C5.74674 4.604 4.99007 4.50467 4.32874 4.13C4.26075 4.19399 4.19472 4.26002 4.13074 4.328C4.5054 4.99 4.60407 5.74601 4.3054 6.46934C4.0054 7.19201 3.40074 7.65667 2.6674 7.86C2.66474 7.95334 2.66474 8.04667 2.6674 8.14ZM8.00074 10C7.4703 10 6.9616 9.78929 6.58652 9.41422C6.21145 9.03915 6.00074 8.53044 6.00074 8C6.00074 7.46957 6.21145 6.96086 6.58652 6.58579C6.9616 6.21072 7.4703 6 8.00074 6C8.53117 6 9.03988 6.21072 9.41495 6.58579C9.79002 6.96086 10.0007 7.46957 10.0007 8C10.0007 8.53044 9.79002 9.03915 9.41495 9.41422C9.03988 9.78929 8.53117 10 8.00074 10ZM8.00074 8.66667C8.17755 8.66667 8.34712 8.59643 8.47214 8.47141C8.59717 8.34639 8.6674 8.17682 8.6674 8C8.6674 7.82319 8.59717 7.65362 8.47214 7.5286C8.34712 7.40358 8.17755 7.33334 8.00074 7.33334C7.82393 7.33334 7.65436 7.40358 7.52933 7.5286C7.40431 7.65362 7.33407 7.82319 7.33407 8C7.33407 8.17682 7.40431 8.34639 7.52933 8.47141C7.65436 8.59643 7.82393 8.66667 8.00074 8.66667Z" fill="#F98038"/>
</svg>
