<svg width="48" height="48" viewBox="0 0 48 48" fill="none" xmlns="http://www.w3.org/2000/svg">
<path d="M24 44C12.954 44 4 35.046 4 24C4 12.954 12.954 4 24 4C35.046 4 44 12.954 44 24C44 35.046 35.046 44 24 44ZM24 40C28.2435 40 32.3131 38.3143 35.3137 35.3137C38.3143 32.3131 40 28.2435 40 24C40 19.7565 38.3143 15.6869 35.3137 12.6863C32.3131 9.68571 28.2435 8 24 8C19.7565 8 15.6869 9.68571 12.6863 12.6863C9.68571 15.6869 8 19.7565 8 24C8 28.2435 9.68571 32.3131 12.6863 35.3137C15.6869 38.3143 19.7565 40 24 40ZM21.244 16.83L31.002 23.334C31.1117 23.407 31.2017 23.506 31.264 23.6222C31.3262 23.7384 31.3588 23.8682 31.3588 24C31.3588 24.1318 31.3262 24.2616 31.264 24.3778C31.2017 24.494 31.1117 24.593 31.002 24.666L21.242 31.17C21.1217 31.2498 20.982 31.2955 20.8377 31.3023C20.6935 31.3091 20.5501 31.2768 20.4228 31.2087C20.2955 31.1406 20.189 31.0394 20.1145 30.9156C20.0401 30.7919 20.0005 30.6504 20 30.506V17.494C20.0003 17.3493 20.0398 17.2074 20.1143 17.0834C20.1889 16.9593 20.2956 16.8579 20.4233 16.7897C20.5509 16.7216 20.6947 16.6893 20.8392 16.6964C20.9837 16.7035 21.1236 16.7497 21.244 16.83Z" fill="white"/>
</svg>
