<svg width="24" height="24" viewBox="0 0 24 24" fill="none" xmlns="http://www.w3.org/2000/svg">
<path d="M14 2C15.8299 1.99913 17.6049 2.62567 19.0288 3.77513C20.4527 4.92458 21.4395 6.52748 21.8246 8.31647C22.2097 10.1055 21.9699 11.9724 21.145 13.6059C20.3202 15.2395 18.9602 16.5408 17.292 17.293C16.7587 18.4719 15.9475 19.5039 14.9278 20.3004C13.9082 21.097 12.7105 21.6343 11.4376 21.8663C10.1647 22.0984 8.85446 22.0182 7.61933 21.6327C6.3842 21.2472 5.261 20.5678 4.34608 19.6529C3.43115 18.738 2.7518 17.6148 2.36628 16.3796C1.98076 15.1445 1.90058 13.8343 2.13262 12.5614C2.36466 11.2884 2.90199 10.0908 3.69854 9.07114C4.49508 8.05148 5.52705 7.24024 6.70596 6.707C7.34011 5.30389 8.36555 4.1135 9.65931 3.27861C10.9531 2.44371 12.4602 1.99976 14 2ZM9.99996 8C9.21203 8 8.43182 8.1552 7.70386 8.45672C6.97591 8.75825 6.31447 9.20021 5.75732 9.75736C5.20017 10.3145 4.75822 10.9759 4.45669 11.7039C4.15516 12.4319 3.99996 13.2121 3.99996 14C3.99996 14.7879 4.15516 15.5681 4.45669 16.2961C4.75822 17.0241 5.20017 17.6855 5.75732 18.2426C6.31447 18.7998 6.97591 19.2417 7.70386 19.5433C8.43182 19.8448 9.21203 20 9.99996 20C11.5913 20 13.1174 19.3679 14.2426 18.2426C15.3678 17.1174 16 15.5913 16 14C16 12.4087 15.3678 10.8826 14.2426 9.75736C13.1174 8.63214 11.5913 8 9.99996 8ZM14 4C13.1526 3.99901 12.3148 4.17794 11.5418 4.52496C10.7688 4.87198 10.0783 5.37918 9.51596 6.013C10.6462 5.94439 11.7782 6.1165 12.837 6.51795C13.8958 6.9194 14.8573 7.54105 15.6579 8.34178C16.4586 9.14252 17.0801 10.1041 17.4814 11.1629C17.8827 12.2218 18.0547 13.3537 17.986 14.484C18.8952 13.6756 19.5372 12.6099 19.8268 11.4283C20.1164 10.2467 20.04 9.00492 19.6076 7.86772C19.1752 6.73053 18.4074 5.75164 17.4059 5.06088C16.4044 4.37013 15.2166 4.00014 14 4Z" fill="#00B0E9"/>
<path d="M9.10369 14.3529V12.8543H9.96134C10.0879 12.8543 10.2097 12.8637 10.3269 12.8824C10.4441 12.901 10.5472 12.9384 10.6362 12.9944C10.7252 13.0458 10.7955 13.1204 10.8471 13.2185C10.9033 13.3165 10.9315 13.4449 10.9315 13.6036C10.9315 13.7624 10.9033 13.8908 10.8471 13.9888C10.7955 14.0868 10.7252 14.1639 10.6362 14.2199C10.5472 14.2712 10.4441 14.3063 10.3269 14.3249C10.2097 14.3436 10.0879 14.3529 9.96134 14.3529H9.10369ZM8 12V17H9.10369V15.2073H10.2636C10.5776 15.2073 10.8448 15.1629 11.065 15.0742C11.2853 14.9809 11.4634 14.8595 11.5993 14.7101C11.7399 14.5607 11.8407 14.3903 11.9016 14.1989C11.9672 14.0028 12 13.8044 12 13.6036C12 13.3982 11.9672 13.1998 11.9016 13.0084C11.8407 12.817 11.7399 12.6466 11.5993 12.4972C11.4634 12.3478 11.2853 12.2288 11.065 12.1401C10.8448 12.0467 10.5776 12 10.2636 12H8Z" fill="#00B0E9"/>
</svg>
