<svg width="16" height="16" viewBox="0 0 16 16" fill="none" xmlns="http://www.w3.org/2000/svg">
<path d="M13.3334 11.3335H14.6667V12.6668H1.33337V11.3335H2.66671V6.66683C2.66671 5.25234 3.22861 3.89579 4.2288 2.89559C5.229 1.8954 6.58555 1.3335 8.00004 1.3335C9.41453 1.3335 10.7711 1.8954 11.7713 2.89559C12.7715 3.89579 13.3334 5.25234 13.3334 6.66683V11.3335ZM12 11.3335V6.66683C12 5.60596 11.5786 4.58855 10.8285 3.8384C10.0783 3.08826 9.06091 2.66683 8.00004 2.66683C6.93918 2.66683 5.92176 3.08826 5.17161 3.8384C4.42147 4.58855 4.00004 5.60596 4.00004 6.66683V11.3335H12ZM6.00004 14.0002H10V15.3335H6.00004V14.0002Z" fill="#F98038"/>
</svg>
