<svg width="40" height="40" viewBox="0 0 40 40" fill="none" xmlns="http://www.w3.org/2000/svg">
<rect width="40" height="40" rx="20" fill="#00C48C"/>
<path d="M15.291 28.824L10 30L11.176 24.709C10.4015 23.2604 9.99754 21.6426 10 20C10 14.477 14.477 10 20 10C25.523 10 30 14.477 30 20C30 25.523 25.523 30 20 30C18.3574 30.0025 16.7396 29.5985 15.291 28.824ZM15.581 26.711L16.234 27.061C17.3926 27.6801 18.6864 28.0027 20 28C21.5823 28 23.129 27.5308 24.4446 26.6518C25.7602 25.7727 26.7855 24.5233 27.391 23.0615C27.9965 21.5997 28.155 19.9911 27.8463 18.4393C27.5376 16.8874 26.7757 15.462 25.6569 14.3431C24.538 13.2243 23.1126 12.4624 21.5607 12.1537C20.0089 11.845 18.4004 12.0035 16.9385 12.609C15.4767 13.2145 14.2273 14.2398 13.3483 15.5554C12.4692 16.871 12 18.4177 12 20C12 21.334 12.325 22.618 12.94 23.766L13.289 24.419L12.634 27.366L15.581 26.711Z" fill="white"/>
</svg>
