<svg width="48" height="48" viewBox="0 0 48 48" fill="none" xmlns="http://www.w3.org/2000/svg">
<rect width="48" height="48" rx="24" fill="#0084F4"/>
<path d="M24.0001 26.3999V28.7999C22.0906 28.7999 20.2592 29.5585 18.909 30.9088C17.5587 32.259 16.8001 34.0904 16.8001 35.9999H14.4001C14.4001 33.4538 15.4116 31.012 17.2119 29.2117C19.0123 27.4114 21.4541 26.3999 24.0001 26.3999ZM24.0001 25.1999C20.0221 25.1999 16.8001 21.9779 16.8001 17.9999C16.8001 14.0219 20.0221 10.7999 24.0001 10.7999C27.9781 10.7999 31.2001 14.0219 31.2001 17.9999C31.2001 21.9779 27.9781 25.1999 24.0001 25.1999ZM24.0001 22.7999C26.6521 22.7999 28.8001 20.6519 28.8001 17.9999C28.8001 15.3479 26.6521 13.1999 24.0001 13.1999C21.3481 13.1999 19.2001 15.3479 19.2001 17.9999C19.2001 20.6519 21.3481 22.7999 24.0001 22.7999ZM31.2001 35.3999L27.6733 37.2539L28.3465 33.3275L25.4941 30.5459L29.4373 29.9723L31.2001 26.3999L32.9641 29.9723L36.9061 30.5459L34.0537 33.3275L34.7257 37.2539L31.2001 35.3999Z" fill="white"/>
</svg>
